ffmpeg started on 2016-12-08 at 12:25:54
Report written to "Output/x264/results/ffmpeg/sintelveryslow2000k.log"
Command line:
Tools/ffmpeg/ffmpeg -benchmark -y -i Input/y4m/sintel.y4m -c:v libx264 -preset veryslow -b:v 2000k -an Output/x264/encoded/sintelveryslow2000k.mkv
ffmpeg version N-82227-gdb23fde Copyright (c) 2000-2016 the FFmpeg developers
  built with gcc 5.4.0 (Ubuntu 5.4.0-6ubuntu1~16.04.2) 20160609
  configuration: --prefix=/home/jaroslav/ffmpeg_build --pkg-config-flags=--static --extra-cflags=-I/home/jaroslav/ffmpeg_build/include --extra-ldflags=-L/home/jaroslav/ffmpeg_build/lib --bindir=/home/jaroslav/bin --enable-gpl --enable-libass --enable-libfdk-aac --enable-libfreetype --enable-libmp3lame --enable-libopus --enable-libtheora --enable-libvorbis --enable-libvpx --enable-libx264 --enable-libx265 --enable-nvenc --enable-libmfx --enable-libxvid --enable-libgsm --enable-libopencore-amrnb --enable-version3 --enable-nonfree
  libavutil      55. 35.100 / 55. 35.100
  libavcodec     57. 66.101 / 57. 66.101
  libavformat    57. 57.100 / 57. 57.100
  libavdevice    57.  2.100 / 57.  2.100
  libavfilter     6. 66.100 /  6. 66.100
  libswscale      4.  3.100 /  4.  3.100
  libswresample   2.  4.100 /  2.  4.100
  libpostproc    54.  2.100 / 54.  2.100
Input #0, yuv4mpegpipe, from 'Input/y4m/sintel.y4m':
  Duration: 00:00:20.83, start: 0.000000, bitrate: 2057307 kb/s
    Stream #0:0: Video: rawvideo (I420 / 0x30323449), yuv420p(progressive), 4096x1744, SAR 1:1 DAR 256:109, 24 fps, 24 tbr, 24 tbn, 24 tbc
[libx264 @ 0x31761c0] using SAR=1/1
[libx264 @ 0x31761c0] DPB size (16 frames, 446464 mbs) > level limit (6 frames, 184320 mbs)
[libx264 @ 0x31761c0] using cpu capabilities: MMX2 SSE2Fast SSSE3 SSE4.2 AVX FMA3 AVX2 LZCNT BMI2
[libx264 @ 0x31761c0] profile High, level 5.2
[libx264 @ 0x31761c0] 264 - core 148 - H.264/MPEG-4 AVC codec - Copyleft 2003-2016 - http://www.videolan.org/x264.html - options: cabac=1 ref=16 deblock=1:0:0 analyse=0x3:0x133 me=umh subme=10 psy=1 psy_rd=1.00:0.00 mixed_ref=1 me_range=24 chroma_me=1 trellis=2 8x8dct=1 cqm=0 deadzone=21,11 fast_pskip=1 chroma_qp_offset=-2 threads=6 lookahead_threads=1 sliced_threads=0 nr=0 decimate=1 interlaced=0 bluray_compat=0 constrained_intra=0 bframes=8 b_pyramid=2 b_adapt=2 b_bias=0 direct=3 weightb=1 open_gop=0 weightp=2 keyint=250 keyint_min=24 scenecut=40 intra_refresh=0 rc_lookahead=60 rc=abr mbtree=1 bitrate=2000 ratetol=1.0 qcomp=0.60 qpmin=0 qpmax=69 qpstep=4 ip_ratio=1.40 aq=1:1.00
Output #0, matroska, to 'Output/x264/encoded/sintelveryslow2000k.mkv':
  Metadata:
    encoder         : Lavf57.57.100
    Stream #0:0: Video: h264 (libx264) (H264 / 0x34363248), yuv420p, 4096x1744 [SAR 1:1 DAR 256:109], q=-1--1, 2000 kb/s, 24 fps, 1k tbn, 24 tbc
    Metadata:
      encoder         : Lavc57.66.101 libx264
    Side data:
      cpb: bitrate max/min/avg: 0/0/2000000 buffer size: 0 vbv_delay: -1
Stream mapping:
  Stream #0:0 -> #0:0 (rawvideo (native) -> h264 (libx264))
Press [q] to stop, [?] for help
frame=   10 fps=0.0 q=0.0 size=       0kB time=00:00:00.00 bitrate=N/A speed=   0x    frame=   18 fps= 18 q=0.0 size=       0kB time=00:00:00.00 bitrate=N/A speed=   0x    frame=   21 fps= 13 q=0.0 size=       0kB time=00:00:00.00 bitrate=N/A speed=   0x    frame=   29 fps= 14 q=0.0 size=       0kB time=00:00:00.00 bitrate=N/A speed=   0x    frame=   37 fps= 14 q=0.0 size=       0kB time=00:00:00.00 bitrate=N/A speed=   0x    frame=   45 fps= 13 q=0.0 size=       0kB time=00:00:00.00 bitrate=N/A speed=   0x    frame=   53 fps= 14 q=0.0 size=       0kB time=00:00:00.00 bitrate=N/A speed=   0x    frame=   58 fps= 13 q=0.0 size=       0kB time=00:00:00.00 bitrate=N/A speed=   0x    frame=   62 fps= 11 q=0.0 size=       0kB time=00:00:00.00 bitrate=N/A speed=   0x    frame=   63 fps=7.0 q=0.0 size=       0kB time=00:00:00.00 bitrate=N/A speed=   0x    frame=   64 fps=6.7 q=0.0 size=       0kB time=00:00:00.00 bitrate=N/A speed=   0x    frame=   72 fps=2.7 q=0.0 size=       0kB time=00:00:00.00 bitrate=N/A speed=   0x    frame=   76 fps=2.6 q=38.0 size=       1kB time=-00:00:00.08 bitrate=N/A speed=N/A    frame=   79 fps=2.6 q=43.0 size=       1kB time=00:00:00.04 bitrate= 136.9kbits/s speed=0.00143x    frame=   81 fps=2.6 q=49.0 size=       1kB time=00:00:00.12 bitrate=  46.7kbits/s speed=0.00408x    frame=   84 fps=2.6 q=54.0 size=       1kB time=00:00:00.25 bitrate=  23.5kbits/s speed=0.00783x    frame=   86 fps=2.6 q=54.0 size=       1kB time=00:00:00.33 bitrate=  17.6kbits/s speed=0.0102x    frame=   88 fps=2.6 q=54.0 size=       1kB time=00:00:00.41 bitrate=  14.1kbits/s speed=0.0124x    frame=   89 fps=2.6 q=54.0 size=       1kB time=00:00:00.45 bitrate=  12.8kbits/s speed=0.0134x    frame=   90 fps=2.5 q=55.0 size=       1kB time=00:00:00.50 bitrate=  11.8kbits/s speed=0.0141x    frame=   91 fps=2.5 q=55.0 size=       1kB time=00:00:00.54 bitrate=  10.8kbits/s speed=0.0147x    frame=   92 fps=2.5 q=55.0 size=       1kB time=00:00:00.58 bitrate=  10.1kbits/s speed=0.0156x    frame=   93 fps=2.4 q=56.0 size=       1kB time=00:00:00.62 bitrate=   9.4kbits/s speed=0.016x    frame=   95 fps=2.4 q=56.0 size=       1kB time=00:00:00.70 bitrate=   8.3kbits/s speed=0.0178x    frame=   96 fps=2.3 q=56.0 size=       1kB time=00:00:00.75 bitrate=   7.8kbits/s speed=0.0182x    frame=   97 fps=2.3 q=56.0 size=       1kB time=00:00:00.79 bitrate=   7.4kbits/s speed=0.0186x    frame=   98 fps=2.2 q=56.0 size=       1kB time=00:00:00.83 bitrate=   7.1kbits/s speed=0.0191x    frame=   99 fps=2.2 q=56.0 size=       1kB time=00:00:00.87 bitrate=   6.7kbits/s speed=0.0195x    frame=  100 fps=2.2 q=56.0 size=       1kB time=00:00:00.91 bitrate=   6.4kbits/s speed=0.0201x    frame=  101 fps=2.2 q=56.0 size=       1kB time=00:00:00.95 bitrate=   6.1kbits/s speed=0.0206x    frame=  103 fps=2.2 q=56.0 size=       1kB time=00:00:01.04 bitrate=   5.6kbits/s speed=0.0218x    frame=  104 fps=2.1 q=56.0 size=       1kB time=00:00:01.08 bitrate=   5.4kbits/s speed=0.0224x    frame=  105 fps=2.1 q=56.0 size=       1kB time=00:00:01.12 bitrate=   5.2kbits/s speed=0.0226x    frame=  106 fps=2.1 q=56.0 size=       1kB time=00:00:01.16 bitrate=   5.0kbits/s speed=0.0232x    frame=  107 fps=2.1 q=56.0 size=       1kB time=00:00:01.20 bitrate=   4.9kbits/s speed=0.0236x    frame=  108 fps=2.1 q=56.0 size=       1kB time=00:00:01.25 bitrate=   4.7kbits/s speed=0.0239x    frame=  110 fps=2.1 q=56.0 size=       1kB time=00:00:01.33 bitrate=   4.4kbits/s speed=0.0249x    frame=  111 fps=2.0 q=56.0 size=       1kB time=00:00:01.37 bitrate=   4.3kbits/s speed=0.0251x    frame=  113 fps=2.0 q=56.0 size=       1kB time=00:00:01.45 bitrate=   4.0kbits/s speed=0.026x    frame=  114 fps=2.0 q=56.0 size=       1kB time=00:00:01.50 bitrate=   3.9kbits/s speed=0.0263x    frame=  115 fps=2.0 q=56.0 size=       1kB time=00:00:01.54 bitrate=   3.8kbits/s speed=0.0265x    frame=  116 fps=2.0 q=56.0 size=       1kB time=00:00:01.58 bitrate=   3.7kbits/s speed=0.0269x    frame=  117 fps=2.0 q=56.0 size=       1kB time=00:00:01.62 bitrate=   3.6kbits/s speed=0.0274x    frame=  119 fps=2.0 q=56.0 size=       1kB time=00:00:01.70 bitrate=   3.4kbits/s speed=0.0284x    frame=  120 fps=2.0 q=56.0 size=       1kB time=00:00:01.75 bitrate=   3.4kbits/s speed=0.0286x    frame=  121 fps=2.0 q=56.0 size=       1kB time=00:00:01.79 bitrate=   3.3kbits/s speed=0.029x    frame=  123 fps=2.0 q=55.0 size=       1kB time=00:00:01.87 bitrate=   3.1kbits/s speed=0.0298x    frame=  124 fps=1.9 q=55.0 size=       1kB time=00:00:01.91 bitrate=   3.1kbits/s speed=0.03x    frame=  126 fps=1.9 q=55.0 size=       1kB time=00:00:02.00 bitrate=   2.9kbits/s speed=0.0305x    frame=  127 fps=1.9 q=55.0 size=       1kB time=00:00:02.04 bitrate=   2.9kbits/s speed=0.0307x    frame=  128 fps=1.9 q=55.0 size=       1kB time=00:00:02.08 bitrate=   2.8kbits/s speed=0.0308x    frame=  129 fps=1.9 q=55.0 size=       1kB time=00:00:02.12 bitrate=   2.8kbits/s speed=0.0312x    frame=  130 fps=1.9 q=55.0 size=       1kB time=00:00:02.16 bitrate=   2.7kbits/s speed=0.0311x    frame=  131 fps=1.9 q=55.0 size=       1kB time=00:00:02.20 bitrate=   2.7kbits/s speed=0.0314x    frame=  132 fps=1.9 q=55.0 size=       1kB time=00:00:02.25 bitrate=   2.6kbits/s speed=0.0317x    frame=  133 fps=1.8 q=55.0 size=       1kB time=00:00:02.29 bitrate=   2.6kbits/s speed=0.0315x    frame=  134 fps=1.8 q=56.0 size=       1kB time=00:00:02.33 bitrate=   2.5kbits/s speed=0.0316x    frame=  135 fps=1.8 q=56.0 size=       1kB time=00:00:02.37 bitrate=   2.5kbits/s speed=0.032x    frame=  136 fps=1.8 q=56.0 size=       1kB time=00:00:02.41 bitrate=   2.4kbits/s speed=0.0319x    frame=  137 fps=1.8 q=56.0 size=       1kB time=00:00:02.45 bitrate=   2.4kbits/s speed=0.0322x    frame=  138 fps=1.8 q=56.0 size=       1kB time=00:00:02.50 bitrate=   2.4kbits/s speed=0.0324x    frame=  139 fps=1.8 q=56.0 size=       1kB time=00:00:02.54 bitrate=   2.3kbits/s speed=0.0327x    frame=  140 fps=1.8 q=56.0 size=       1kB time=00:00:02.58 bitrate=   2.3kbits/s speed=0.0327x    frame=  141 fps=1.8 q=56.0 size=       1kB time=00:00:02.62 bitrate=   2.2kbits/s speed=0.0328x    frame=  142 fps=1.7 q=56.0 size=       1kB time=00:00:02.66 bitrate=   2.2kbits/s speed=0.0323x    frame=  144 fps=1.7 q=56.0 size=       1kB time=00:00:02.75 bitrate=   2.1kbits/s speed=0.0329x    frame=  145 fps=1.7 q=56.0 size=       1kB time=00:00:02.79 bitrate=   2.1kbits/s speed=0.0332x    frame=  146 fps=1.7 q=56.0 size=       1kB time=00:00:02.83 bitrate=   2.1kbits/s speed=0.0335x    frame=  147 fps=1.7 q=56.0 size=       1kB time=00:00:02.87 bitrate=   2.0kbits/s speed=0.0336x    frame=  148 fps=1.7 q=56.0 size=       1kB time=00:00:02.91 bitrate=   2.0kbits/s speed=0.0331x    frame=  150 fps=1.7 q=56.0 size=       1kB time=00:00:03.00 bitrate=   2.0kbits/s speed=0.0336x    frame=  151 fps=1.7 q=56.0 size=       1kB time=00:00:03.04 bitrate=   1.9kbits/s speed=0.0336x    frame=  152 fps=1.7 q=56.0 size=       1kB time=00:00:03.08 bitrate=   1.9kbits/s speed=0.0338x    frame=  153 fps=1.7 q=56.0 size=       1kB time=00:00:03.12 bitrate=   1.9kbits/s speed=0.034x    frame=  154 fps=1.6 q=56.0 size=       1kB time=00:00:03.16 bitrate=   1.9kbits/s speed=0.0339x    frame=  155 fps=1.6 q=56.0 size=       1kB time=00:00:03.20 bitrate=   1.8kbits/s speed=0.0339x    frame=  156 fps=1.6 q=56.0 size=       1kB time=00:00:03.25 bitrate=   1.8kbits/s speed=0.0341x    frame=  157 fps=1.6 q=56.0 size=       1kB time=00:00:03.29 bitrate=   1.8kbits/s speed=0.0341x    frame=  158 fps=1.6 q=56.0 size=       1kB time=00:00:03.33 bitrate=   1.8kbits/s speed=0.0342x    frame=  160 fps=1.6 q=56.0 size=       1kB time=00:00:03.41 bitrate=   1.7kbits/s speed=0.0343x    frame=  161 fps=1.6 q=56.0 size=       1kB time=00:00:03.45 bitrate=   1.7kbits/s speed=0.0343x    frame=  162 fps=1.6 q=56.0 size=       1kB time=00:00:03.50 bitrate=   1.7kbits/s speed=0.0344x    frame=  163 fps=1.6 q=56.0 size=       1kB time=00:00:03.54 bitrate=   1.7kbits/s speed=0.0343x    frame=  164 fps=1.6 q=56.0 size=       1kB time=00:00:03.58 bitrate=   1.6kbits/s speed=0.0343x    frame=  165 fps=1.6 q=56.0 size=       1kB time=00:00:03.62 bitrate=   1.6kbits/s speed=0.0345x    frame=  166 fps=1.6 q=56.0 size=       1kB time=00:00:03.66 bitrate=   1.6kbits/s speed=0.0345x    frame=  168 fps=1.6 q=56.0 size=       1kB time=00:00:03.75 bitrate=   1.6kbits/s speed=0.0348x    frame=  169 fps=1.6 q=56.0 size=       1kB time=00:00:03.79 bitrate=   1.6kbits/s speed=0.0349x    frame=  170 fps=1.5 q=56.0 size=       1kB time=00:00:03.83 bitrate=   1.5kbits/s speed=0.035x    frame=  171 fps=1.5 q=56.0 size=       1kB time=00:00:03.87 bitrate=   1.5kbits/s speed=0.035x    frame=  172 fps=1.5 q=56.0 size=       1kB time=00:00:03.91 bitrate=   1.5kbits/s speed=0.0349x    frame=  174 fps=1.5 q=56.0 size=       1kB time=00:00:04.00 bitrate=   1.5kbits/s speed=0.0354x    frame=  175 fps=1.5 q=56.0 size=       1kB time=00:00:04.04 bitrate=   1.5kbits/s speed=0.0354x    frame=  176 fps=1.5 q=56.0 size=       1kB time=00:00:04.08 bitrate=   1.4kbits/s speed=0.0355x    frame=  177 fps=1.5 q=56.0 size=       1kB time=00:00:04.12 bitrate=   1.4kbits/s speed=0.0357x    frame=  178 fps=1.5 q=56.0 size=       1kB time=00:00:04.16 bitrate=   1.4kbits/s speed=0.0355x    frame=  180 fps=1.5 q=56.0 size=       1kB time=00:00:04.25 bitrate=   1.4kbits/s speed=0.036x    frame=  182 fps=1.5 q=55.0 size=       1kB time=00:00:04.33 bitrate=   1.4kbits/s speed=0.0361x    frame=  184 fps=1.5 q=55.0 size=       1kB time=00:00:04.41 bitrate=   1.3kbits/s speed=0.0366x    frame=  186 fps=1.5 q=55.0 size=       1kB time=00:00:04.50 bitrate=   1.3kbits/s speed=0.037x    frame=  187 fps=1.5 q=55.0 size=       1kB time=00:00:04.54 bitrate=   1.3kbits/s speed=0.037x    frame=  188 fps=1.5 q=55.0 size=       1kB time=00:00:04.58 bitrate=   1.3kbits/s speed=0.0371x    frame=  189 fps=1.5 q=55.0 size=       1kB time=00:00:04.62 bitrate=   1.3kbits/s speed=0.0371x    frame=  190 fps=1.5 q=55.0 size=       1kB time=00:00:04.66 bitrate=   1.3kbits/s speed=0.0372x    frame=  192 fps=1.5 q=55.0 size=       1kB time=00:00:04.75 bitrate=   1.2kbits/s speed=0.037x    frame=  194 fps=1.5 q=55.0 size=       1kB time=00:00:04.83 bitrate=   1.2kbits/s speed=0.0374x    frame=  196 fps=1.5 q=55.0 size=    1365kB time=00:00:04.91 bitrate=2274.4kbits/s speed=0.0378x    frame=  199 fps=1.5 q=55.0 size=    1365kB time=00:00:05.04 bitrate=2218.1kbits/s speed=0.0381x    frame=  200 fps=1.5 q=55.0 size=    1365kB time=00:00:05.08 bitrate=2200.2kbits/s speed=0.0382x    frame=  201 fps=1.5 q=55.0 size=    1365kB time=00:00:05.12 bitrate=2182.1kbits/s speed=0.0383x    frame=  202 fps=1.5 q=55.0 size=    1365kB time=00:00:05.16 bitrate=2164.4kbits/s speed=0.0383x    frame=  204 fps=1.5 q=55.0 size=    1365kB time=00:00:05.25 bitrate=2130.2kbits/s speed=0.0386x    frame=  205 fps=1.5 q=55.0 size=    1365kB time=00:00:05.29 bitrate=2113.3kbits/s speed=0.0386x    frame=  206 fps=1.5 q=55.0 size=    1365kB time=00:00:05.33 bitrate=2097.1kbits/s speed=0.0386x    frame=  207 fps=1.5 q=55.0 size=    1365kB time=00:00:05.37 bitrate=2080.7kbits/s speed=0.0388x    frame=  208 fps=1.5 q=55.0 size=    1365kB time=00:00:05.41 bitrate=2064.5kbits/s speed=0.0387x    frame=  209 fps=1.5 q=56.0 size=    1365kB time=00:00:05.45 bitrate=2049.0kbits/s speed=0.0387x    frame=  210 fps=1.5 q=56.0 size=    1365kB time=00:00:05.50 bitrate=2033.4kbits/s speed=0.0388x    frame=  211 fps=1.5 q=56.0 size=    1365kB time=00:00:05.54 bitrate=2018.0kbits/s speed=0.0389x    frame=  212 fps=1.5 q=56.0 size=    1365kB time=00:00:05.58 bitrate=2003.2kbits/s speed=0.039x    frame=  214 fps=1.5 q=56.0 size=    1365kB time=00:00:05.66 bitrate=1973.5kbits/s speed=0.0393x    frame=  216 fps=1.5 q=56.0 size=    1365kB time=00:00:05.75 bitrate=1945.0kbits/s speed=0.0396x    frame=  217 fps=1.5 q=56.0 size=    1365kB time=00:00:05.79 bitrate=1930.9kbits/s speed=0.0395x    frame=  219 fps=1.5 q=56.0 size=    1365kB time=00:00:05.87 bitrate=1903.6kbits/s speed=0.0398x    frame=  220 fps=1.5 q=56.0 size=    1365kB time=00:00:05.91 bitrate=1890.1kbits/s speed=0.0399x    frame=  222 fps=1.5 q=56.0 size=    1365kB time=00:00:06.00 bitrate=1864.0kbits/s speed=0.0403x    frame=  223 fps=1.5 q=56.0 size=    1365kB time=00:00:06.04 bitrate=1851.0kbits/s speed=0.04x    frame=  225 fps=1.5 q=56.0 size=    1365kB time=00:00:06.12 bitrate=1825.9kbits/s speed=0.0403x    frame=  226 fps=1.5 q=56.0 size=    1365kB time=00:00:06.16 bitrate=1813.5kbits/s speed=0.0403x    frame=  227 fps=1.5 q=56.0 size=    1365kB time=00:00:06.20 bitrate=1801.5kbits/s speed=0.0403x    frame=  229 fps=1.5 q=56.0 size=    1365kB time=00:00:06.29 bitrate=1777.5kbits/s speed=0.0406x    frame=  231 fps=1.5 q=56.0 size=    1365kB time=00:00:06.37 bitrate=1754.3kbits/s speed=0.041x    frame=  233 fps=1.5 q=56.0 size=    1365kB time=00:00:06.45 bitrate=1731.8kbits/s speed=0.0404x    frame=  235 fps=1.5 q=56.0 size=    1365kB time=00:00:06.54 bitrate=1709.6kbits/s speed=0.0407x    frame=  236 fps=1.5 q=56.0 size=    1365kB time=00:00:06.58 bitrate=1698.9kbits/s speed=0.0407x    frame=  237 fps=1.5 q=56.0 size=    1365kB time=00:00:06.62 bitrate=1688.1kbits/s speed=0.0408x    frame=  239 fps=1.5 q=56.0 size=    1365kB time=00:00:06.70 bitrate=1667.3kbits/s speed=0.0407x    frame=  240 fps=1.4 q=56.0 size=    1365kB time=00:00:06.75 bitrate=1656.9kbits/s speed=0.0407x    frame=  241 fps=1.4 q=56.0 size=    1365kB time=00:00:06.79 bitrate=1646.6kbits/s speed=0.0407x    frame=  242 fps=1.4 q=56.0 size=    1365kB time=00:00:06.83 bitrate=1636.8kbits/s speed=0.0407x    frame=  243 fps=1.4 q=56.0 size=    1365kB time=00:00:06.87 bitrate=1626.8kbits/s speed=0.0408x    frame=  245 fps=1.4 q=56.0 size=    1365kB time=00:00:06.95 bitrate=1607.4kbits/s speed=0.0409x    frame=  246 fps=1.4 q=56.0 size=    1365kB time=00:00:07.00 bitrate=1597.7kbits/s speed=0.0409x    frame=  247 fps=1.4 q=56.0 size=    1365kB time=00:00:07.04 bitrate=1588.2kbits/s speed=0.0409x    frame=  248 fps=1.4 q=56.0 size=    1365kB time=00:00:07.08 bitrate=1579.0kbits/s speed=0.0409x    frame=  249 fps=1.4 q=56.0 size=    1365kB time=00:00:07.12 bitrate=1569.7kbits/s speed=0.0409x    frame=  250 fps=1.4 q=56.0 size=    1365kB time=00:00:07.16 bitrate=1560.5kbits/s speed=0.041x    frame=  251 fps=1.4 q=56.0 size=    1365kB time=00:00:07.20 bitrate=1551.6kbits/s speed=0.0409x    frame=  252 fps=1.4 q=56.0 size=    1365kB time=00:00:07.25 bitrate=1542.6kbits/s speed=0.041x    frame=  253 fps=1.4 q=56.0 size=    1365kB time=00:00:07.29 bitrate=1533.8kbits/s speed=0.0411x    frame=  254 fps=1.4 q=56.0 size=    1365kB time=00:00:07.33 bitrate=1525.2kbits/s speed=0.0411x    frame=  256 fps=1.4 q=56.0 size=    1365kB time=00:00:07.41 bitrate=1507.9kbits/s speed=0.0413x    frame=  257 fps=1.4 q=56.0 size=    1365kB time=00:00:07.45 bitrate=1499.6kbits/s speed=0.0412x    frame=  259 fps=1.4 q=56.0 size=    1365kB time=00:00:07.54 bitrate=1482.9kbits/s speed=0.0415x    frame=  260 fps=1.4 q=56.0 size=    1365kB time=00:00:07.58 bitrate=1474.9kbits/s speed=0.0411x    frame=  262 fps=1.4 q=56.0 size=    1365kB time=00:00:07.66 bitrate=1458.7kbits/s speed=0.0414x    frame=  266 fps=1.4 q=55.0 size=    1365kB time=00:00:07.83 bitrate=1427.8kbits/s speed=0.0421x    frame=  267 fps=1.4 q=55.0 size=    1365kB time=00:00:07.87 bitrate=1420.2kbits/s speed=0.0416x    frame=  269 fps=1.4 q=55.0 size=    1365kB time=00:00:07.95 bitrate=1405.4kbits/s speed=0.0419x    frame=  271 fps=1.4 q=55.0 size=    1365kB time=00:00:08.04 bitrate=1390.7kbits/s speed=0.0422x    frame=  272 fps=1.4 q=55.0 size=    1365kB time=00:00:08.08 bitrate=1383.7kbits/s speed=0.0423x    frame=  273 fps=1.4 q=55.0 size=    1365kB time=00:00:08.12 bitrate=1376.5kbits/s speed=0.0421x    frame=  274 fps=1.4 q=55.0 size=    1365kB time=00:00:08.16 bitrate=1369.5kbits/s speed=0.0421x    frame=  275 fps=1.4 q=55.0 size=    1365kB time=00:00:08.20 bitrate=1362.6kbits/s speed=0.0421x    frame=  276 fps=1.4 q=55.0 size=    1365kB time=00:00:08.25 bitrate=1355.7kbits/s speed=0.042x    frame=  277 fps=1.4 q=55.0 size=    1365kB time=00:00:08.29 bitrate=1348.8kbits/s speed=0.0421x    frame=  278 fps=1.4 q=55.0 size=    1365kB time=00:00:08.33 bitrate=1342.2kbits/s speed=0.0422x    frame=  279 fps=1.4 q=55.0 size=    1365kB time=00:00:08.37 bitrate=1335.4kbits/s speed=0.0423x    frame=  281 fps=1.4 q=55.0 size=    1365kB time=00:00:08.45 bitrate=1322.3kbits/s speed=0.0424x    frame=  282 fps=1.4 q=55.0 size=    1365kB time=00:00:08.50 bitrate=1315.8kbits/s speed=0.0424x    frame=  284 fps=1.4 q=55.0 size=    1365kB time=00:00:08.58 bitrate=1303.1kbits/s speed=0.0425x    frame=  286 fps=1.4 q=55.0 size=    1365kB time=00:00:08.66 bitrate=1290.5kbits/s speed=0.0428x    frame=  288 fps=1.4 q=55.0 size=    1365kB time=00:00:08.75 bitrate=1278.2kbits/s speed=0.043x    frame=  289 fps=1.4 q=55.0 size=    1365kB time=00:00:08.79 bitrate=1272.1kbits/s speed=0.0428x    frame=  292 fps=1.4 q=55.0 size=    1365kB time=00:00:08.91 bitrate=1254.3kbits/s speed=0.0432x    frame=  294 fps=1.4 q=55.0 size=    1365kB time=00:00:09.00 bitrate=1242.7kbits/s speed=0.0435x    frame=  295 fps=1.4 q=55.0 size=    1365kB time=00:00:09.04 bitrate=1236.9kbits/s speed=0.0433x    frame=  298 fps=1.4 q=55.0 size=    1365kB time=00:00:09.16 bitrate=1220.1kbits/s speed=0.0435x    frame=  302 fps=1.4 q=55.0 size=    1365kB time=00:00:09.33 bitrate=1198.4kbits/s speed=0.0438x    frame=  303 fps=1.4 q=55.0 size=    1365kB time=00:00:09.37 bitrate=1193.0kbits/s speed=0.0439x    frame=  308 fps=1.4 q=55.0 size=    1365kB time=00:00:09.58 bitrate=1167.1kbits/s speed=0.0445x    frame=  309 fps=1.4 q=55.0 size=    1365kB time=00:00:09.62 bitrate=1162.0kbits/s speed=0.0445x    frame=  310 fps=1.4 q=55.0 size=    1365kB time=00:00:09.66 bitrate=1157.0kbits/s speed=0.0445x    frame=  312 fps=1.4 q=55.0 size=    1365kB time=00:00:09.75 bitrate=1147.1kbits/s speed=0.0447x    frame=  315 fps=1.4 q=55.0 size=    1365kB time=00:00:09.87 bitrate=1132.6kbits/s speed=0.0451x    frame=  316 fps=1.4 q=55.0 size=    1365kB time=00:00:09.91 bitrate=1127.8kbits/s speed=0.0451x    frame=  318 fps=1.4 q=54.0 size=    2494kB time=00:00:10.00 bitrate=2043.0kbits/s speed=0.0453x    frame=  320 fps=1.4 q=54.0 size=    2494kB time=00:00:10.08 bitrate=2026.2kbits/s speed=0.0455x    frame=  321 fps=1.4 q=52.0 size=    2494kB time=00:00:10.12 bitrate=2017.8kbits/s speed=0.0454x    frame=  324 fps=1.4 q=54.0 size=    2494kB time=00:00:10.25 bitrate=1993.1kbits/s speed=0.0457x    frame=  326 fps=1.4 q=54.0 size=    2556kB time=00:00:10.33 bitrate=2026.1kbits/s speed=0.0459x    frame=  332 fps=1.5 q=54.0 size=    2556kB time=00:00:10.58 bitrate=1978.2kbits/s speed=0.0468x    frame=  334 fps=1.5 q=54.0 size=    2556kB time=00:00:10.66 bitrate=1962.6kbits/s speed=0.0471x    frame=  339 fps=1.5 q=54.0 size=    2556kB time=00:00:10.87 bitrate=1925.1kbits/s speed=0.0478x    frame=  343 fps=1.5 q=54.0 size=    2556kB time=00:00:11.04 bitrate=1896.0kbits/s speed=0.0483x    frame=  346 fps=1.5 q=54.0 size=    2556kB time=00:00:11.16 bitrate=1874.8kbits/s speed=0.0485x    frame=  349 fps=1.5 q=54.0 size=    2556kB time=00:00:11.29 bitrate=1854.0kbits/s speed=0.0488x    frame=  351 fps=1.5 q=53.0 size=    2556kB time=00:00:11.37 bitrate=1840.5kbits/s speed=0.049x    frame=  353 fps=1.5 q=53.0 size=    2556kB time=00:00:11.45 bitrate=1827.2kbits/s speed=0.0491x    frame=  357 fps=1.5 q=53.0 size=    2556kB time=00:00:11.62 bitrate=1800.9kbits/s speed=0.0495x    frame=  360 fps=1.5 q=53.0 size=    2556kB time=00:00:11.75 bitrate=1781.7kbits/s speed=0.0496x    frame=  364 fps=1.5 q=53.0 size=    2556kB time=00:00:11.91 bitrate=1756.8kbits/s speed=0.0502x    frame=  366 fps=1.5 q=53.0 size=    2556kB time=00:00:12.00 bitrate=1744.6kbits/s speed=0.0503x    frame=  368 fps=1.5 q=53.0 size=    2556kB time=00:00:12.08 bitrate=1732.6kbits/s speed=0.0505x    frame=  369 fps=1.5 q=53.0 size=    2556kB time=00:00:12.12 bitrate=1726.6kbits/s speed=0.0506x    frame=  373 fps=1.5 q=53.0 size=    2556kB time=00:00:12.29 bitrate=1703.2kbits/s speed=0.051x    frame=  375 fps=1.6 q=53.0 size=    2556kB time=00:00:12.37 bitrate=1691.8kbits/s speed=0.0512x    frame=  376 fps=1.6 q=52.0 size=    2556kB time=00:00:12.41 bitrate=1686.0kbits/s speed=0.0513x    frame=  378 fps=1.6 q=53.0 size=    2556kB time=00:00:12.50 bitrate=1674.9kbits/s speed=0.0515x    frame=  382 fps=1.6 q=52.0 size=    2556kB time=00:00:12.66 bitrate=1652.8kbits/s speed=0.0519x    frame=  383 fps=1.6 q=52.0 size=    2556kB time=00:00:12.70 bitrate=1647.4kbits/s speed=0.0519x    frame=  388 fps=1.6 q=52.0 size=    2556kB time=00:00:12.91 bitrate=1620.8kbits/s speed=0.0526x    frame=  389 fps=1.6 q=52.0 size=    2556kB time=00:00:12.95 bitrate=1615.7kbits/s speed=0.0526x    frame=  393 fps=1.6 q=51.0 size=    2556kB time=00:00:13.12 bitrate=1595.1kbits/s speed=0.0531x    frame=  394 fps=1.6 q=51.0 size=    2556kB time=00:00:13.16 bitrate=1590.0kbits/s speed=0.0531x    frame=  399 fps=1.6 q=51.0 size=    2556kB time=00:00:13.37 bitrate=1565.3kbits/s speed=0.0537x    frame=  400 fps=1.6 q=51.0 size=    2556kB time=00:00:13.41 bitrate=1560.4kbits/s speed=0.0536x    frame=  405 fps=1.6 q=51.0 size=    2556kB time=00:00:13.62 bitrate=1536.6kbits/s speed=0.0542x    frame=  408 fps=1.6 q=51.0 size=    2556kB time=00:00:13.75 bitrate=1522.6kbits/s speed=0.0544x    frame=  410 fps=1.6 q=51.0 size=    2556kB time=00:00:13.83 bitrate=1513.5kbits/s speed=0.0546x    frame=  413 fps=1.6 q=50.0 size=    2556kB time=00:00:13.95 bitrate=1499.9kbits/s speed=0.0549x    frame=  414 fps=1.6 q=50.0 size=    2556kB time=00:00:14.00 bitrate=1495.4kbits/s speed=0.0549x    frame=  419 fps=1.6 q=50.0 size=    2556kB time=00:00:14.20 bitrate=1473.5kbits/s speed=0.0556x    frame=  420 fps=1.6 q=50.0 size=    2556kB time=00:00:14.25 bitrate=1469.2kbits/s speed=0.0554x    frame=  425 fps=1.6 q=50.0 size=    2556kB time=00:00:14.45 bitrate=1448.0kbits/s speed=0.0561x    frame=  426 fps=1.6 q=50.0 size=    2556kB time=00:00:14.50 bitrate=1443.9kbits/s speed=0.056x    frame=  430 fps=1.7 q=49.0 size=    2556kB time=00:00:14.66 bitrate=1427.4kbits/s speed=0.0565x    frame=  431 fps=1.7 q=49.0 size=    2556kB time=00:00:14.70 bitrate=1423.4kbits/s speed=0.0565x    frame=  433 fps=1.7 q=49.0 size=    2556kB time=00:00:14.79 bitrate=1415.4kbits/s speed=0.0567x    frame=  437 fps=1.7 q=49.0 size=    2556kB time=00:00:14.95 bitrate=1399.6kbits/s speed=0.0571x    frame=  439 fps=1.6 q=49.0 size=    2556kB time=00:00:15.04 bitrate=1391.8kbits/s speed=0.0565x    frame=  441 fps=1.7 q=49.0 size=    2556kB time=00:00:15.12 bitrate=1384.2kbits/s speed=0.0567x    frame=  443 fps=1.7 q=49.0 size=    2556kB time=00:00:15.20 bitrate=1376.6kbits/s speed=0.0568x    frame=  445 fps=1.7 q=49.0 size=    3123kB time=00:00:15.29 bitrate=1673.1kbits/s speed=0.057x    frame=  446 fps=1.7 q=49.0 size=    3123kB time=00:00:15.33 bitrate=1668.6kbits/s speed=0.0569x    frame=  449 fps=1.7 q=49.0 size=    3123kB time=00:00:15.45 bitrate=1655.1kbits/s speed=0.057x    frame=  452 fps=1.7 q=49.0 size=    3123kB time=00:00:15.58 bitrate=1641.9kbits/s speed=0.0571x    frame=  454 fps=1.7 q=49.0 size=    3123kB time=00:00:15.66 bitrate=1633.1kbits/s speed=0.0572x    frame=  456 fps=1.7 q=49.0 size=    3123kB time=00:00:15.75 bitrate=1624.4kbits/s speed=0.0574x    frame=  459 fps=1.7 q=49.0 size=    3123kB time=00:00:15.87 bitrate=1611.7kbits/s speed=0.0574x    frame=  462 fps=1.7 q=48.0 size=    3123kB time=00:00:16.00 bitrate=1599.1kbits/s speed=0.0577x    frame=  464 fps=1.7 q=48.0 size=    3123kB time=00:00:16.08 bitrate=1590.8kbits/s speed=0.0578x    frame=  465 fps=1.7 q=48.0 size=    3123kB time=00:00:16.12 bitrate=1586.7kbits/s speed=0.0578x    frame=  467 fps=1.7 q=48.0 size=    3123kB time=00:00:16.20 bitrate=1578.5kbits/s speed=0.058x    frame=  468 fps=1.7 q=48.0 size=    3123kB time=00:00:16.25 bitrate=1574.5kbits/s speed=0.0577x    frame=  470 fps=1.7 q=48.0 size=    3123kB time=00:00:16.33 bitrate=1566.5kbits/s speed=0.0579x    frame=  473 fps=1.7 q=48.0 size=    3123kB time=00:00:16.45 bitrate=1554.6kbits/s speed=0.0582x    frame=  474 fps=1.7 q=48.0 size=    3123kB time=00:00:16.50 bitrate=1550.6kbits/s speed=0.0581x    frame=  475 fps=1.7 q=48.0 size=    3123kB time=00:00:16.54 bitrate=1546.7kbits/s speed=0.0581x    frame=  476 fps=1.7 q=48.0 size=    3123kB time=00:00:16.58 bitrate=1542.9kbits/s speed=0.0579x    frame=  479 fps=1.7 q=48.0 size=    3123kB time=00:00:16.70 bitrate=1531.3kbits/s speed=0.0582x    frame=  482 fps=1.7 q=48.0 size=    3123kB time=00:00:16.83 bitrate=1519.9kbits/s speed=0.0582x    frame=  483 fps=1.7 q=48.0 size=    3123kB time=00:00:16.87 bitrate=1516.2kbits/s speed=0.0582x    frame=  485 fps=1.7 q=48.0 size=    3123kB time=00:00:16.95 bitrate=1508.7kbits/s speed=0.0584x    frame=  487 fps=1.7 q=48.0 size=    3123kB time=00:00:17.04 bitrate=1501.3kbits/s speed=0.0585x    frame=  489 fps=1.7 q=48.0 size=    3123kB time=00:00:17.12 bitrate=1494.0kbits/s speed=0.0585x    frame=  490 fps=1.7 q=48.0 size=    3123kB time=00:00:17.16 bitrate=1490.4kbits/s speed=0.0585x    frame=  494 fps=1.7 q=48.0 size=    3123kB time=00:00:17.33 bitrate=1476.1kbits/s speed=0.0582x    frame=  497 fps=1.7 q=48.0 size=    3123kB time=00:00:17.45 bitrate=1465.5kbits/s speed=0.0585x    frame=  499 fps=1.7 q=48.0 size=    3123kB time=00:00:17.54 bitrate=1458.5kbits/s speed=0.0586x    frame=  500 fps=1.7 q=48.0 size=    3123kB time=00:00:17.58 bitrate=1455.1kbits/s speed=0.0585x    frame=  500 fps=1.5 q=-1.0 Lsize=    4046kB time=00:00:20.70 bitrate=1600.4kbits/s speed=0.0629x    
video:4041kB audio:0kB subtitle:0kB other streams:0kB global headers:0kB muxing overhead: 0.107025%
bench: utime=1192.936s
bench: maxrss=2815548kB
[libx264 @ 0x31761c0] frame I:3     Avg QP:41.62  size: 38894
[libx264 @ 0x31761c0] frame P:268   Avg QP:48.05  size: 11014
[libx264 @ 0x31761c0] frame B:229   Avg QP:46.17  size:  4669
[libx264 @ 0x31761c0] consecutive B-frames: 36.2%  7.6% 18.0% 17.6% 11.0%  9.6%  0.0%  0.0%  0.0%
[libx264 @ 0x31761c0] mb I  I16..4: 22.5% 77.0%  0.5%
[libx264 @ 0x31761c0] mb P  I16..4:  6.4% 37.0%  0.0%  P16..4:  7.1%  0.1%  0.1%  0.0%  0.0%    skip:49.3%
[libx264 @ 0x31761c0] mb B  I16..4:  0.4%  0.6%  0.0%  B16..8: 14.1%  0.2%  0.0%  direct: 0.1%  skip:84.7%  L0:44.2% L1:55.5% BI: 0.3%
[libx264 @ 0x31761c0] final ratefactor: 45.62
[libx264 @ 0x31761c0] 8x8 transform intra:84.5% inter:95.9%
[libx264 @ 0x31761c0] direct mvs  spatial:99.1% temporal:0.9%
[libx264 @ 0x31761c0] coded y,uvDC,uvAC intra: 3.3% 11.0% 0.0% inter: 0.1% 0.5% 0.0%
[libx264 @ 0x31761c0] i16 v,h,dc,p: 44% 37%  4% 16%
[libx264 @ 0x31761c0] i8 v,h,dc,ddl,ddr,vr,hd,vl,hu: 13%  5% 81%  0%  0%  0%  0%  0%  0%
[libx264 @ 0x31761c0] i4 v,h,dc,ddl,ddr,vr,hd,vl,hu: 17% 11% 13% 14% 12%  9%  9%  6% 10%
[libx264 @ 0x31761c0] i8c dc,h,v,p: 97%  2%  1%  0%
[libx264 @ 0x31761c0] Weighted P-Frames: Y:1.5% UV:1.1%
[libx264 @ 0x31761c0] ref P L0: 40.1%  2.1% 19.1%  6.4%  5.7%  5.1%  5.4%  2.2%  2.3%  2.0%  1.9%  1.7%  1.6%  1.6%  1.8%  0.9%
[libx264 @ 0x31761c0] ref B L0: 76.5%  8.3%  5.0%  1.9%  1.6%  1.3%  1.3%  0.6%  0.6%  0.6%  0.5%  0.5%  0.5%  0.5%  0.2%
[libx264 @ 0x31761c0] ref B L1: 97.0%  3.0%
[libx264 @ 0x31761c0] kb/s:1588.83
